<svg xmlns="http://www.w3.org/2000/svg" width="16" height="16" viewBox="0 0 16 16" fill="none">
        <path fill-rule="evenodd" clip-rule="evenodd" d="M4.23916 5.49523C3.23497 6.33334 2.53223 7.31821 2.17712 7.88049C2.15356 7.9178 2.13708 7.94393 2.12331 7.96661C2.11422 7.98158 2.10822 7.99193 2.10421 7.99915C2.10421 7.99942 2.10421 7.99969 2.10421 7.99996C2.10421 8.00023 2.10421 8.0005 2.10421 8.00077C2.10822 8.00799 2.11422 8.01834 2.12331 8.03331C2.13708 8.05599 2.15356 8.08212 2.17712 8.11943C2.53223 8.68171 3.23497 9.66658 4.23916 10.5047C5.24179 11.3415 6.50476 12 8.00031 12C9.49586 12 10.7588 11.3415 11.7615 10.5047C12.7657 9.66658 13.4684 8.68171 13.8235 8.11943C13.8471 8.08212 13.8635 8.05599 13.8773 8.03331C13.8864 8.01834 13.8924 8.00798 13.8964 8.00077C13.8964 8.0005 13.8964 8.00023 13.8964 7.99996C13.8964 7.99969 13.8964 7.99942 13.8964 7.99915C13.8924 7.99194 13.8864 7.98158 13.8773 7.96661C13.8635 7.94393 13.8471 7.9178 13.8235 7.88049C13.4684 7.31821 12.7657 6.33334 11.7615 5.49523C10.7588 4.65843 9.49586 3.99996 8.00031 3.99996C6.50476 3.99996 5.24179 4.65843 4.23916 5.49523ZM3.38481 4.47158C4.53721 3.50977 6.09253 2.66663 8.00031 2.66663C9.90809 2.66663 11.4634 3.50977 12.6158 4.47158C13.7666 5.43208 14.5557 6.54282 14.9508 7.16852C14.9561 7.17679 14.9614 7.18523 14.9669 7.19385C15.0453 7.31728 15.1471 7.47753 15.1986 7.70207C15.2401 7.88337 15.2401 8.11655 15.1986 8.29785C15.1471 8.52239 15.0453 8.68264 14.9669 8.80607C14.9614 8.81469 14.9561 8.82313 14.9508 8.83139C14.5557 9.4571 13.7666 10.5678 12.6158 11.5283C11.4634 12.4901 9.90809 13.3333 8.00031 13.3333C6.09253 13.3333 4.53721 12.4901 3.38481 11.5283C2.23397 10.5678 1.44495 9.4571 1.04979 8.8314C1.04457 8.82313 1.03921 8.81469 1.03373 8.80607C0.955318 8.68264 0.853509 8.52239 0.802041 8.29785C0.760485 8.11655 0.760485 7.88337 0.802041 7.70207C0.853509 7.47753 0.955319 7.31727 1.03373 7.19385C1.03921 7.18523 1.04457 7.17679 1.04979 7.16852C1.44495 6.54282 2.23397 5.43208 3.38481 4.47158ZM8.00031 6.66663C7.26393 6.66663 6.66698 7.26358 6.66698 7.99996C6.66698 8.73634 7.26393 9.33329 8.00031 9.33329C8.73669 9.33329 9.33364 8.73634 9.33364 7.99996C9.33364 7.26358 8.73669 6.66663 8.00031 6.66663ZM5.33364 7.99996C5.33364 6.5272 6.52755 5.33329 8.00031 5.33329C9.47307 5.33329 10.667 6.5272 10.667 7.99996C10.667 9.47272 9.47307 10.6666 8.00031 10.6666C6.52755 10.6666 5.33364 9.47272 5.33364 7.99996Z" fill="currentColor"></path>
        </svg>