<svg class="svg-search icon icon--header-search" xmlns="http://www.w3.org/2000/svg" width="20" height="20" viewBox="0 0 20 20" fill="none">
    <path fill-rule="evenodd" clip-rule="evenodd" d="M8.00002 1.6C4.4654 1.6 1.60002 4.46538 1.60002 8C1.60002 11.5346 4.4654 14.4 8.00002 14.4C11.5346 14.4 14.4 11.5346 14.4 8C14.4 4.46538 11.5346 1.6 8.00002 1.6ZM0.400024 8C0.400024 3.80264 3.80266 0.400002 8.00002 0.400002C12.1974 0.400002 15.6 3.80264 15.6 8C15.6 9.88268 14.9155 11.6055 13.7817 12.933L19.4243 18.5757C19.6586 18.8101 19.6586 19.19 19.4243 19.4243C19.19 19.6586 18.8101 19.6586 18.5758 19.4243L12.9332 13.7816C11.6056 14.9154 9.88275 15.6 8.00002 15.6C3.80266 15.6 0.400024 12.1974 0.400024 8Z" fill="currentColor"></path>
    </svg>